<?xml version="1.0" encoding="UTF-8" standalone="no"?>
<!-- Created with Inkscape (http://www.inkscape.org/) -->

<svg
   width="1080"
   height="1080"
   viewBox="0 0 1080 1080"
   version="1.1"
   id="svg1"
   inkscape:version="1.4.2 (ebf0e940d0, 2025-05-08)"
   sodipodi:docname="natrix.svg"
   inkscape:export-filename="natrix.png"
   inkscape:export-xdpi="96"
   inkscape:export-ydpi="96"
   xmlns:inkscape="http://www.inkscape.org/namespaces/inkscape"
   xmlns:sodipodi="http://sodipodi.sourceforge.net/DTD/sodipodi-0.dtd"
   xmlns="http://www.w3.org/2000/svg"
   xmlns:svg="http://www.w3.org/2000/svg">
  <sodipodi:namedview
     id="namedview1"
     pagecolor="#000000"
     bordercolor="#000000"
     borderopacity="0.25"
     inkscape:showpageshadow="2"
     inkscape:pageopacity="0.0"
     inkscape:pagecheckerboard="0"
     inkscape:deskcolor="#d1d1d1"
     inkscape:document-units="px"
     inkscape:export-bgcolor="#00000000"
     inkscape:zoom="0.83329025"
     inkscape:cx="348.61802"
     inkscape:cy="440.42277"
     inkscape:window-width="1872"
     inkscape:window-height="1026"
     inkscape:window-x="0"
     inkscape:window-y="0"
     inkscape:window-maximized="0"
     inkscape:current-layer="layer1" />
  <defs
     id="defs1">
    <inkscape:path-effect
       effect="fillet_chamfer"
       id="path-effect2"
       is_visible="true"
       lpeversion="1"
       nodesatellites_param="F,0,0,1,0,9,0,1 @ F,0,0,1,0,9,0,1 @ F,0,0,1,0,9,0,1 @ F,0,0,1,0,9,0,1 @ F,0,0,1,0,9,0,1 @ F,0,0,1,0,9,0,1 @ F,0,0,1,0,9,0,1"
       radius="9"
       unit="px"
       method="auto"
       mode="F"
       chamfer_steps="1"
       flexible="false"
       use_knot_distance="true"
       apply_no_radius="true"
       apply_with_radius="true"
       only_selected="false"
       hide_knots="false" />
    <inkscape:path-effect
       effect="bspline"
       id="path-effect1"
       is_visible="true"
       lpeversion="1.3"
       weight="33.333333"
       steps="2"
       helper_size="0"
       apply_no_weight="true"
       apply_with_weight="true"
       only_selected="false"
       uniform="false" />
  </defs>
  <g
     inkscape:label="Layer 1"
     inkscape:groupmode="layer"
     id="layer1">
    <path
       style="baseline-shift:baseline;display:inline;overflow:visible;opacity:1;fill:#2d1650;stroke:#ffffff;stroke-width:10;stroke-linecap:round;stroke-linejoin:round;stroke-dasharray:none;enable-background:accumulate;stop-color:#000000;stop-opacity:1"
       d="m 490.99609,748.57422 c -32.4871,-0.54952 -61.63337,19.8822 -72.19531,50.60937 -13.46457,39.17176 28.8833,42.75 51.37008,52.33635 54.88965,23.40003 119.36177,-0.0105 178.99684,2.01289 16.07252,0.54533 36.52427,13.82119 48.16809,2.72863 10.14399,-9.66372 7.87965,-30.68423 -0.34067,-42.02947 -37.74299,-52.09082 -121.11953,-40.36366 -182.8877,-61.59527 -7.4429,-2.55841 -15.24212,-3.92935 -23.11133,-4.0625 z"
       id="path2"
       sodipodi:nodetypes="csaaaasc" />
    <path
       style="baseline-shift:baseline;display:inline;overflow:visible;opacity:1;fill:#2d1650;stroke:#ffffff;stroke-width:10;stroke-linecap:round;stroke-linejoin:round;stroke-dasharray:none;enable-background:accumulate;stop-color:#000000;stop-opacity:1"
       d="m 625.72266,122.77344 c -32.48116,0.85487 -60.7177,22.52785 -69.94141,53.68359 -9.31409,31.46097 -6.57159,67.42998 5.61328,95.30859 12.18487,27.87862 30.72584,47.91809 49.64453,64.13086 37.8374,32.42556 80.56893,52.91122 119.82031,73.03125 39.25139,20.12004 43.14029,37.23708 59.91469,51.42646 6.31611,5.34276 8.81402,8.63649 9.92969,10.20703 -7.64584,38.69827 -0.93993,60.98303 37.15043,71.23679 40.07948,10.45783 41.95437,-26.09501 50.52739,-47.58329 25.0496,-60.61215 -14.49089,-96.08485 -46.68392,-138.31842 -17.12015,-25.01947 -21.49407,-58.51186 -42.41445,-80.45294 -24.20331,-25.38419 -74.64983,-39.74502 -90.63672,-53.44531 -4.553,-3.9018 -6.92226,-6.6373 -8.3164,-8.42578 8.34048,-38.15395 40.86043,-76.32264 3.51171,-87.74024 -7.54606,-2.23374 -70.25213,-3.2659 -78.11913,-3.05859 z"
       id="path6"
       sodipodi:nodetypes="csssssccaaasccc" />
    <path
       style="baseline-shift:baseline;display:inline;overflow:visible;opacity:1;fill:#2d1650;stroke:#ffffff;stroke-width:10;stroke-linecap:round;stroke-linejoin:round;stroke-dasharray:none;enable-background:accumulate;stop-color:#000000;stop-opacity:1"
       d="m 455.3369,289.89005 c -3.69377,-13.76567 -68.03557,-20.42253 -97.70324,-6.79819 -53.76482,24.69053 -95.34149,75.86978 -106.04125,142.32974 -10.69975,66.45995 -8.34939,131.22838 9.99583,197.3059 11.08074,39.91175 22.54689,35.5271 62.45863,24.44633 39.91176,-11.08073 70.25307,-24.54166 59.1723,-64.45341 -14.11476,-50.83986 -25.64222,-129.83527 -19.91644,-165.40011 5.72578,-35.56483 26.97661,-64.35272 49.42069,-65.51232 47.72914,-2.46601 48.38519,-40.40831 42.61348,-61.91794 z"
       id="path4"
       sodipodi:nodetypes="sasssssss" />
    <path
       style="fill:#53536c;stroke:#ffffff;stroke-width:3.20402106;stroke-dasharray:none"
       d="m 416.1131,737.49087 h 36.60053 a 9,9 135 0 0 9,-9 V 625.10241 a 4.2610469,4.2610469 154.6648 0 1 6.96162,-3.29597 l 58.13906,47.63645 a 2.378883,2.378883 144.13544 0 0 3.7277,-2.69488 L 436.45653,422.39589 a 3.4587934,3.4587934 179.96356 0 0 -6.45716,0.004 l -93.76906,244.45731 a 2.514793,2.514793 36.597345 0 0 3.88901,2.88795 l 60.41135,-46.8449 a 4.3853262,4.3853262 26.230798 0 1 7.07255,3.48484 l -0.45042,102.10576 a 8.960386,8.960386 45.126373 0 0 8.9603,8.99991 z"
       id="path1"
       sodipodi:nodetypes="cccccccc"
       inkscape:path-effect="#path-effect2"
       inkscape:original-d="m 407.1131,737.49087 h 54.60053 V 616.10241 l 72.0623,59.04451 -100.55332,-261.14994 -100.21554,261.26335 74.63585,-57.87504 z"
       transform="matrix(2.2069355,2.2069355,-2.2069355,2.2069355,891.18371,-1723.5048)"
       inkscape:label="Cursors" />
    <path
       style="baseline-shift:baseline;display:inline;overflow:visible;opacity:1;fill:#2d1650;stroke:#ffffff;stroke-width:10;stroke-linecap:round;stroke-linejoin:round;stroke-dasharray:none;enable-background:accumulate;stop-color:#000000;stop-opacity:1"
       d="m 555.78125,176.45703 c -3.23565,10.92949 -4.94057,22.06385 -2.06879,9.67026 4.99734,-24.50339 81.71581,-69.58963 121.73601,-51.23938 24.72599,11.33747 45.35368,56.1956 25.09272,77.65029 13.25552,-36.08905 26.94074,-35.80259 46.87872,-37.49493 46.53515,-3.94991 77.55101,55.50014 122.59936,67.81958 30.15105,8.24545 80.55612,31.02588 93.73614,2.68227 C 996.54878,175.02305 884.18615,88.784705 808.35624,71.504861 719.46418,51.248462 597.54522,35.387519 555.78125,176.45703 Z"
       id="path7"
       sodipodi:nodetypes="ccacaaaac" />
    <path
       style="baseline-shift:baseline;display:inline;overflow:visible;opacity:1;fill:#2d1650;stroke:#ffffff;stroke-width:10;stroke-linecap:round;stroke-linejoin:round;stroke-dasharray:none;enable-background:accumulate;stop-color:#000000;stop-opacity:1"
       d="m 382.02551,277.43467 c 36.53011,4.46465 50.47226,7.23772 55.46865,27.21804 5.06406,20.25089 -5.68528,39.65622 -36.61747,50.80205 0.62476,0.73474 12.88097,-5.15078 5.9733,-2.23307 27.33205,-4.45696 45.66655,-15.18877 64.25017,-4.44091 69.09332,39.96017 63.80645,207.41471 220.03139,249.59126 43.48231,11.73906 95.73848,12.58257 134.75243,-9.92139 36.14298,-20.84793 65.26588,-62.0594 70.4606,-103.45947 2.89667,-23.0854 -1.37348,-59.48297 -23.8188,-65.60948 -28.65599,-7.82173 -61.23719,15.96363 -68.74898,56.69819 -3.99239,21.64975 -10.56484,36.62004 -40.95447,43.23669 C 588.2759,557.32003 596.12239,323.261 480.72546,279.47616 c -30.76678,-11.67378 -91.44505,-7.41521 -98.69995,-2.04149 z"
       id="path5"
       sodipodi:nodetypes="cacccaaaassac" />
    <path
       style="baseline-shift:baseline;display:inline;overflow:visible;opacity:1;fill:#2d1650;stroke:#ffffff;stroke-width:10;stroke-linecap:round;stroke-linejoin:round;stroke-dasharray:none;enable-background:accumulate;stop-color:#000000;stop-opacity:1"
       d="m 301.19548,546.90531 c -29.98607,11.17524 -49.23563,37.48677 -34.80292,89.47186 23.39075,84.251 53.22609,116.01715 98.48773,158.81407 26.50542,25.06207 52.51742,37.40769 96.08265,52.38244 5.40172,1.85674 -1.91857,0.78586 -0.72935,-0.0365 -17.4178,-4.93576 -3.26656,-19.65245 0.44099,-28.34376 11.7771,-27.6081 40.56464,-73.48329 64.01855,-63.32292 7.2613,2.38138 -1.26569,-0.0302 -10.58571,-3.23378 -27.48191,-9.44649 -47.14006,-22.36572 -55.75586,-32.46875 -30.45468,-35.71168 -55.15996,-64.0287 -73.15674,-128.85118 -8.69223,-31.30716 -54.32097,-55.47203 -83.99934,-44.41148 z"
       id="path3"
       sodipodi:nodetypes="asascacssca" />
    <path
       style="fill:#ffffff;fill-opacity:1;stroke:none;stroke-width:10;stroke-linecap:round;stroke-linejoin:round;stroke-dasharray:none"
       d="m 842.64066,159.58494 -23.62054,-29.29846 c 0,0 50.74963,-18.76413 62.80292,25.69267 -17.4139,2.38808 -39.18238,3.60579 -39.18238,3.60579 z"
       id="path8"
       sodipodi:nodetypes="cccc" />
    <path
       style="fill:#ffffff;fill-opacity:1;stroke:none;stroke-width:10;stroke-linecap:round;stroke-linejoin:round;stroke-dasharray:none"
       d="m 949.8728,244.76685 -33.56493,-33.56493 c 0,0 -6.67095,5.57936 -4.29817,14.58598 1.67175,6.34568 21.08063,23.9374 21.08063,23.9374 z"
       id="path9"
       sodipodi:nodetypes="ccscc" />
  </g>
</svg>
