<?xml version="1.0" encoding="UTF-8" standalone="no"?>
<!-- Created with Inkscape (http://www.inkscape.org/) -->

<svg
   width="1080"
   height="1080"
   viewBox="0 0 1080 1080"
   version="1.1"
   id="svg1"
   inkscape:version="1.4.2 (ebf0e940d0, 2025-05-08)"
   sodipodi:docname="natrix.svg"
   inkscape:export-filename="../natrix.png"
   inkscape:export-xdpi="96"
   inkscape:export-ydpi="96"
   xmlns:inkscape="http://www.inkscape.org/namespaces/inkscape"
   xmlns:sodipodi="http://sodipodi.sourceforge.net/DTD/sodipodi-0.dtd"
   xmlns="http://www.w3.org/2000/svg"
   xmlns:svg="http://www.w3.org/2000/svg">
  <sodipodi:namedview
     id="namedview1"
     pagecolor="#000000"
     bordercolor="#000000"
     borderopacity="0.25"
     inkscape:showpageshadow="2"
     inkscape:pageopacity="0.0"
     inkscape:pagecheckerboard="0"
     inkscape:deskcolor="#d1d1d1"
     inkscape:document-units="px"
     inkscape:export-bgcolor="#00000000"
     inkscape:zoom="0.50909812"
     inkscape:cx="407.58351"
     inkscape:cy="628.56253"
     inkscape:window-width="1508"
     inkscape:window-height="1674"
     inkscape:window-x="0"
     inkscape:window-y="0"
     inkscape:window-maximized="0"
     inkscape:current-layer="layer1" />
  <defs
     id="defs1">
    <inkscape:path-effect
       effect="fillet_chamfer"
       id="path-effect2"
       is_visible="true"
       lpeversion="1"
       nodesatellites_param="F,0,0,1,0,9,0,1 @ F,0,0,1,0,9,0,1 @ F,0,0,1,0,9,0,1 @ F,0,0,1,0,9,0,1 @ F,0,0,1,0,9,0,1 @ F,0,0,1,0,9,0,1 @ F,0,0,1,0,9,0,1"
       radius="9"
       unit="px"
       method="auto"
       mode="F"
       chamfer_steps="1"
       flexible="false"
       use_knot_distance="true"
       apply_no_radius="true"
       apply_with_radius="true"
       only_selected="false"
       hide_knots="false" />
    <inkscape:path-effect
       effect="bspline"
       id="path-effect1"
       is_visible="true"
       lpeversion="1.3"
       weight="33.333333"
       steps="2"
       helper_size="0"
       apply_no_weight="true"
       apply_with_weight="true"
       only_selected="false"
       uniform="false" />
  </defs>
  <g
     inkscape:label="Layer 1"
     inkscape:groupmode="layer"
     id="layer1">
    <path
       style="baseline-shift:baseline;display:inline;overflow:visible;opacity:1;fill:#2d1650;stroke:#ffffff;stroke-width:10;stroke-linecap:round;stroke-linejoin:round;stroke-dasharray:none;enable-background:accumulate;stop-color:#000000;stop-opacity:1"
       d="m 592.98026,747.37416 c 32.4871,-0.54952 61.63337,19.8822 72.19531,50.60937 13.46457,39.17176 -28.8833,42.75 -51.37008,52.33635 -54.88965,23.40003 -119.36177,-0.0105 -178.99684,2.01289 -16.07252,0.54533 -36.52427,13.82119 -48.16809,2.72863 -10.14399,-9.66372 -7.87965,-30.68423 0.34067,-42.02947 37.74299,-52.09082 121.11953,-40.36366 182.8877,-61.59527 7.4429,-2.55841 15.24212,-3.92935 23.11133,-4.0625 z"
       id="path2"
       sodipodi:nodetypes="csaaaasc" />
    <path
       style="baseline-shift:baseline;display:inline;overflow:visible;opacity:1;fill:#2d1650;stroke:#ffffff;stroke-width:10;stroke-linecap:round;stroke-linejoin:round;stroke-dasharray:none;enable-background:accumulate;stop-color:#000000;stop-opacity:1"
       d="m 458.25369,121.57338 c 32.48116,0.85487 60.7177,22.52785 69.94141,53.68359 9.31409,31.46097 -8.64116,63.13675 -24.72894,89.62556 -51.99578,85.61195 -159.4521,124.83289 -220.19356,204.47863 -16.24022,21.29458 0.93993,60.98303 -37.15043,71.23679 -40.07948,10.45783 -47.92429,-24.59488 -50.52739,-47.58329 -12.75443,-112.63655 119.12299,-194.37047 189.1693,-282.59862 16.25139,-28.65255 -41.97824,-74.36647 -4.62952,-85.78407 7.54606,-2.23374 70.25213,-3.2659 78.11913,-3.05859 z"
       id="path6"
       sodipodi:nodetypes="csaacaccc" />
    <path
       style="baseline-shift:baseline;display:inline;overflow:visible;opacity:1;fill:#2d1650;stroke:#ffffff;stroke-width:10;stroke-linecap:round;stroke-linejoin:round;stroke-dasharray:none;enable-background:accumulate;stop-color:#000000;stop-opacity:1"
       d="m 628.63945,288.68999 c 3.69377,-13.76567 68.03557,-20.42253 97.70324,-6.79819 53.76482,24.69053 95.34149,75.86978 106.04125,142.32974 10.69975,66.45995 8.34939,131.22838 -9.99583,197.3059 -11.08074,39.91175 -22.54689,35.5271 -62.45863,24.44633 -39.91176,-11.08073 -70.25307,-24.54166 -59.1723,-64.45341 14.11476,-50.83986 25.64222,-129.83527 19.91644,-165.40011 -5.72578,-35.56483 -26.97661,-64.35272 -49.42069,-65.51232 -47.72914,-2.46601 -48.38519,-40.40831 -42.61348,-61.91794 z"
       id="path4"
       sodipodi:nodetypes="sasssssss" />
    <path
       style="fill:#53536c;stroke:#ffffff;stroke-width:3.20402;stroke-dasharray:none"
       d="m 416.1131,737.49087 h 36.60053 a 9,9 135 0 0 9,-9 l 0,-103.38846 a 5.7075972,5.7075972 147.61805 0 1 8.14103,-5.16286 l 42.54254,20.05176 a 3.0310224,3.0310224 133.84861 0 0 3.97988,-4.14314 L 436.35495,482.38146 a 4.52705,4.52705 179.16377 0 0 -8.08762,0.11804 L 355.0143,633.58345 a 3.3546593,3.3546593 46.308853 0 0 4.34273,4.54581 l 40.01669,-17.19146 a 5.9004946,5.9004946 33.502016 0 1 8.2295,5.4474 l -0.45042,102.10576 a 8.960386,8.960386 45.126373 0 0 8.9603,8.99991 z"
       id="path1"
       sodipodi:nodetypes="cccccccc"
       inkscape:path-effect="#path-effect2"
       inkscape:original-d="m 407.1131,737.49087 h 54.60053 l 0,-121.38846 58.8246,27.72604 -88.34443,-169.42727 -81.10597,167.28059 56.55509,-24.29648 z"
       transform="matrix(-2.2069355,2.2069355,2.2069355,2.2069355,188.82364,-1723.5048)"
       inkscape:label="Cursors" />
    <path
       style="baseline-shift:baseline;display:inline;overflow:visible;opacity:1;fill:#2d1650;stroke:#ffffff;stroke-width:10;stroke-linecap:round;stroke-linejoin:round;stroke-dasharray:none;enable-background:accumulate;stop-color:#000000;stop-opacity:1"
       d="m 524.84166,149.26784 c 4.91237,10.92949 5.22003,48.05298 5.14278,35.93884 -4.99734,-24.50339 -58.03476,-59.0227 -94.56565,-56.08521 -24.07572,1.93595 -68.05279,19.96184 -55.61652,46.44669 -21.87964,-59.56881 -107.56811,54.04303 -165.84519,66.09463 -30.61048,6.3302 -80.55612,31.02588 -93.73614,2.68227 C 87.427569,173.82299 200.61325,90.865422 275.62011,70.304797 359.66369,47.267057 483.07769,8.1983274 524.84166,149.26784 Z"
       id="path7"
       sodipodi:nodetypes="ccacaaac" />
    <path
       style="baseline-shift:baseline;display:inline;overflow:visible;opacity:1;fill:#2d1650;stroke:#ffffff;stroke-width:10;stroke-linecap:round;stroke-linejoin:round;stroke-dasharray:none;enable-background:accumulate;stop-color:#000000;stop-opacity:1"
       d="m 701.95084,276.23461 c -36.53011,4.46465 -50.47226,7.23772 -55.46865,27.21804 -5.06406,20.25089 5.68528,39.65622 36.61747,50.80205 -0.62476,0.73474 -12.88097,-5.15078 -5.9733,-2.23307 -27.33205,-4.45696 -45.66655,-15.18877 -64.25017,-4.44091 -69.09332,39.96017 -63.80645,207.41471 -220.03139,249.59126 -43.48231,11.73906 -95.73848,12.58257 -134.75243,-9.92139 -36.14298,-20.84793 -65.26588,-62.0594 -70.4606,-103.45947 -2.89667,-23.0854 1.37348,-59.48297 23.8188,-65.60948 28.65599,-7.82173 61.23719,15.96363 68.74898,56.69819 3.99239,21.64975 10.56484,36.62004 40.95447,43.23669 174.54643,38.00345 166.69994,-196.05558 282.09687,-239.84042 30.76678,-11.67378 91.44505,-7.41521 98.69995,-2.04149 z"
       id="path5"
       sodipodi:nodetypes="cacccaaaassac" />
    <path
       style="baseline-shift:baseline;display:inline;overflow:visible;opacity:1;fill:#2d1650;stroke:#ffffff;stroke-width:10;stroke-linecap:round;stroke-linejoin:round;stroke-dasharray:none;enable-background:accumulate;stop-color:#000000;stop-opacity:1"
       d="m 782.78087,545.70525 c 29.98607,11.17524 49.23563,37.48677 34.80292,89.47186 -23.39075,84.251 -53.22609,116.01715 -98.48773,158.81407 -26.50542,25.06207 -52.51742,37.40769 -96.08265,52.38244 -5.40172,1.85674 1.91857,0.78586 0.72935,-0.0365 17.4178,-4.93576 3.26656,-19.65245 -0.44099,-28.34376 -11.7771,-27.6081 -40.56464,-73.48329 -64.01855,-63.32292 -7.2613,2.38138 1.26569,-0.0302 10.58571,-3.23378 27.48191,-9.44649 47.14006,-22.36572 55.75586,-32.46875 30.45468,-35.71168 55.15996,-64.0287 73.15674,-128.85118 8.69223,-31.30716 54.32097,-55.47203 83.99934,-44.41148 z"
       id="path3"
       sodipodi:nodetypes="asascacssca" />
    <path
       style="fill:#ffffff;fill-opacity:1;stroke:none;stroke-width:10;stroke-linecap:round;stroke-linejoin:round;stroke-dasharray:none"
       d="m 241.33569,158.38488 23.62054,-29.29846 c 0,0 -50.74963,-18.76413 -62.80292,25.69267 17.4139,2.38808 39.18238,3.60579 39.18238,3.60579 z"
       id="path8"
       sodipodi:nodetypes="cccc" />
    <path
       style="fill:#ffffff;fill-opacity:1;stroke:none;stroke-width:10;stroke-linecap:round;stroke-linejoin:round;stroke-dasharray:none"
       d="m 134.10355,243.56679 33.56493,-33.56493 c 0,0 6.67095,5.57936 4.29817,14.58598 -1.67175,6.34568 -21.08063,23.9374 -21.08063,23.9374 z"
       id="path9"
       sodipodi:nodetypes="ccscc" />
  </g>
</svg>
