<?xml version="1.0" encoding="UTF-8" standalone="no"?>
<!-- Created with Inkscape (http://www.inkscape.org/) -->

<svg
   width="1080"
   height="1080"
   viewBox="0 0 1080 1080"
   version="1.1"
   id="svg1"
   inkscape:version="1.4.2 (ebf0e940d0, 2025-05-08)"
   sodipodi:docname="natrix.svg"
   inkscape:export-filename="../natrix.png"
   inkscape:export-xdpi="96"
   inkscape:export-ydpi="96"
   xmlns:inkscape="http://www.inkscape.org/namespaces/inkscape"
   xmlns:sodipodi="http://sodipodi.sourceforge.net/DTD/sodipodi-0.dtd"
   xmlns="http://www.w3.org/2000/svg"
   xmlns:svg="http://www.w3.org/2000/svg">
  <sodipodi:namedview
     id="namedview1"
     pagecolor="#000000"
     bordercolor="#000000"
     borderopacity="0.25"
     inkscape:showpageshadow="2"
     inkscape:pageopacity="0.0"
     inkscape:pagecheckerboard="0"
     inkscape:deskcolor="#d1d1d1"
     inkscape:document-units="px"
     inkscape:export-bgcolor="#00000000"
     inkscape:zoom="0.71997347"
     inkscape:cx="27.084331"
     inkscape:cy="577.79907"
     inkscape:window-width="3440"
     inkscape:window-height="1440"
     inkscape:window-x="0"
     inkscape:window-y="0"
     inkscape:window-maximized="0"
     inkscape:current-layer="layer1" />
  <defs
     id="defs1">
    <inkscape:path-effect
       effect="fillet_chamfer"
       id="path-effect2"
       is_visible="true"
       lpeversion="1"
       nodesatellites_param="F,0,0,1,0,9,0,1 @ F,0,0,1,0,9,0,1 @ F,0,0,1,0,9,0,1 @ F,0,0,1,0,9,0,1 @ F,0,0,1,0,9,0,1 @ F,0,0,1,0,9,0,1 @ F,0,0,1,0,9,0,1"
       radius="9"
       unit="px"
       method="auto"
       mode="F"
       chamfer_steps="1"
       flexible="false"
       use_knot_distance="true"
       apply_no_radius="true"
       apply_with_radius="true"
       only_selected="false"
       hide_knots="false" />
    <inkscape:path-effect
       effect="bspline"
       id="path-effect1"
       is_visible="true"
       lpeversion="1.3"
       weight="33.333333"
       steps="2"
       helper_size="0"
       apply_no_weight="true"
       apply_with_weight="true"
       only_selected="false"
       uniform="false" />
  </defs>
  <g
     inkscape:label="Layer 1"
     inkscape:groupmode="layer"
     id="layer1">
    <path
       style="baseline-shift:baseline;display:inline;overflow:visible;opacity:1;fill:#2d1650;stroke:#ffffff;stroke-width:10;stroke-linecap:round;stroke-linejoin:round;stroke-dasharray:none;enable-background:accumulate;stop-color:#000000;stop-opacity:1"
       d="m 592.98026,747.37416 c 32.4871,-0.54952 54.2674,-11.54593 64.82934,19.18124 13.46457,39.17176 -24.3333,48.12331 -46.9505,59.21126 -53.57736,26.26598 -119.36177,-0.0105 -178.99684,2.01289 -16.07252,0.54533 -37.55514,14.8112 -48.16809,2.72863 -3.91181,-4.45351 -0.60329,-13.00399 3.28706,-17.47625 42.21895,-48.53398 121.11953,-40.36366 182.8877,-61.59527 7.4429,-2.55841 15.24212,-3.92935 23.11133,-4.0625 z"
       id="path2"
       sodipodi:nodetypes="csaaaasc" />
    <path
       style="baseline-shift:baseline;display:inline;overflow:visible;opacity:1;fill:#2d1650;stroke:#ffffff;stroke-width:10;stroke-linecap:round;stroke-linejoin:round;stroke-dasharray:none;enable-background:accumulate;stop-color:#000000;stop-opacity:1"
       d="m 458.25369,121.57338 c 32.48116,0.85487 60.7177,22.52785 69.94141,53.68359 9.31409,31.46097 -8.64116,63.13675 -24.72894,89.62556 -51.99578,85.61195 -159.4521,124.83289 -220.19356,204.47863 -16.24022,21.29458 0.93993,60.98303 -37.15043,71.23679 -40.07948,10.45783 -47.92429,-24.59488 -50.52739,-47.58329 -12.75443,-112.63655 119.12299,-194.37047 189.1693,-282.59862 16.25139,-28.65255 -41.97824,-74.36647 -4.62952,-85.78407 7.54606,-2.23374 70.25213,-3.2659 78.11913,-3.05859 z"
       id="path6"
       sodipodi:nodetypes="csaacaccc" />
    <path
       style="baseline-shift:baseline;display:inline;overflow:visible;opacity:1;fill:#2d1650;stroke:#ffffff;stroke-width:10;stroke-linecap:round;stroke-linejoin:round;stroke-dasharray:none;enable-background:accumulate;stop-color:#000000;stop-opacity:1"
       d="m 628.63945,288.68999 c 3.69377,-13.76567 45.13973,-13.40276 64.80192,-4.34287 53.73329,24.75908 95.34149,75.86978 106.04125,142.32974 10.69975,66.45995 4.91194,118.95177 -13.43328,185.02929 -11.08074,39.91175 -5.35963,40.43775 -45.27137,29.35698 C 700.86621,629.9824 689.67641,621.43211 700.75718,581.52036 714.87194,530.6805 726.3994,451.68509 720.67362,416.12025 714.94784,380.55542 689.00934,358.365 666.56526,357.2054 618.83612,354.73939 622.86774,310.19962 628.63945,288.68999 Z"
       id="path4"
       sodipodi:nodetypes="sasssssss" />
    <path
       style="fill:#53536c;stroke:#ffffff;stroke-width:3.20402;stroke-dasharray:none"
       d="m 416.1131,737.49087 h 36.60053 a 9,9 135 0 0 9,-9 V 625.10241 a 5.7075972,5.7075972 147.61805 0 1 8.14103,-5.16286 l 42.54254,20.05176 a 3.0310224,3.0310224 133.84861 0 0 3.97988,-4.14314 L 436.35495,482.38146 a 4.52705,4.52705 179.16377 0 0 -8.08762,0.11804 L 355.0143,633.58345 a 3.3546593,3.3546593 46.308853 0 0 4.34273,4.54581 l 40.01669,-17.19146 a 5.9004946,5.9004946 33.502016 0 1 8.2295,5.4474 l -0.45042,102.10576 a 8.960386,8.960386 45.126373 0 0 8.9603,8.99991 z"
       id="path1"
       sodipodi:nodetypes="cccccccc"
       inkscape:path-effect="#path-effect2"
       inkscape:original-d="m 407.1131,737.49087 h 54.60053 l 0,-121.38846 58.8246,27.72604 -88.34443,-169.42727 -81.10597,167.28059 56.55509,-24.29648 z"
       transform="matrix(-2.2069355,2.2069355,2.2069355,2.2069355,188.82364,-1723.5048)"
       inkscape:label="Cursors" />
    <path
       style="baseline-shift:baseline;display:inline;overflow:visible;opacity:1;fill:#2d1650;stroke:#ffffff;stroke-width:10;stroke-linecap:round;stroke-linejoin:round;stroke-dasharray:none;enable-background:accumulate;stop-color:#000000;stop-opacity:1"
       d="m 524.84166,149.26784 c 4.91237,10.92949 5.22003,48.05298 5.14278,35.93884 -4.99734,-24.50339 -58.03476,-59.0227 -94.56565,-56.08521 -24.07572,1.93595 -68.05279,19.96184 -55.61652,46.44669 -21.87964,-59.56881 -107.56811,54.04303 -165.84519,66.09463 -30.61048,6.3302 -80.55612,31.02588 -93.73614,2.68227 C 87.427569,173.82299 200.61325,90.865422 275.62011,70.304797 359.66369,47.267057 483.07769,8.1983274 524.84166,149.26784 Z"
       id="path7"
       sodipodi:nodetypes="ccacaaac" />
    <path
       style="baseline-shift:baseline;display:inline;overflow:visible;opacity:1;fill:#2d1650;stroke:#ffffff;stroke-width:10;stroke-linecap:round;stroke-linejoin:round;stroke-dasharray:none;enable-background:accumulate;stop-color:#000000;stop-opacity:1"
       d="m 690.50742,282.12227 c -36.53011,4.46465 -43.30995,17.9114 -44.89332,37.30319 -1.44402,17.68519 3.94911,29.06555 34.8813,40.21138 -0.62476,0.73474 -12.01289,-3.24098 -5.10522,-0.32327 -27.33205,-4.45696 -34.60015,7.96529 -53.18377,18.71315 -69.09332,39.96017 -97.56141,198.93854 -192.04071,235.35039 -54.13404,20.86299 -122.97505,4.77846 -172.07333,-26.12652 -35.31165,-22.22697 -65.26588,-62.0594 -70.4606,-103.45947 -2.89667,-23.0854 1.37348,-59.48297 23.8188,-65.60948 28.65599,-7.82173 61.23719,15.96363 68.74898,56.69819 3.99239,21.64975 10.56484,36.62004 40.95447,43.23669 174.54643,38.00345 158.6255,-188.69149 268.74365,-232.10254 31.22304,-12.30882 93.35485,-9.26543 100.60975,-3.89171 z"
       id="path5"
       sodipodi:nodetypes="cacccaaaassac" />
    <path
       style="baseline-shift:baseline;display:inline;overflow:visible;opacity:1;fill:#2d1650;stroke:#ffffff;stroke-width:10;stroke-linecap:round;stroke-linejoin:round;stroke-dasharray:none;enable-background:accumulate;stop-color:#000000;stop-opacity:1"
       d="m 755.28126,541.28567 c 27.90467,7.20012 44.32498,29.13867 29.89227,81.12376 -23.39075,84.251 -43.972,97.02674 -78.84515,136.22511 -23.03674,25.89394 -39.74974,47.22898 -83.31497,62.20373 -5.40172,1.85674 -1.02782,1.76799 -2.21704,0.94563 17.4178,-4.93576 2.66174,-2.28407 2.5054,-3.79054 -3.09831,-29.85478 -40.56464,-73.48329 -64.01855,-63.32292 -7.2613,2.38138 1.26569,-0.0302 10.58571,-3.23378 27.48191,-9.44649 47.14006,-22.36572 55.75586,-32.46875 30.45468,-35.71168 55.15996,-64.0287 73.15674,-128.85118 8.69223,-31.30716 32.39674,-55.05025 56.49973,-48.83106 z"
       id="path3"
       sodipodi:nodetypes="asascacssca" />
    <path
       style="fill:#ffffff;fill-opacity:1;stroke:none;stroke-width:10;stroke-linecap:round;stroke-linejoin:round;stroke-dasharray:none"
       d="m 241.33569,158.38488 23.62054,-29.29846 c 0,0 -50.74963,-18.76413 -62.80292,25.69267 17.4139,2.38808 39.18238,3.60579 39.18238,3.60579 z"
       id="path8"
       sodipodi:nodetypes="cccc" />
    <path
       style="fill:#ffffff;fill-opacity:1;stroke:none;stroke-width:10;stroke-linecap:round;stroke-linejoin:round;stroke-dasharray:none"
       d="m 134.10355,243.56679 33.56493,-33.56493 c 0,0 6.67095,5.57936 4.29817,14.58598 -1.67175,6.34568 -21.08063,23.9374 -21.08063,23.9374 z"
       id="path9"
       sodipodi:nodetypes="ccscc" />
  </g>
</svg>
